<svg width="66" height="66" viewBox="0 0 66 66" fill="none" xmlns="http://www.w3.org/2000/svg">
<circle cx="58.5" cy="33.5" r="7.5" fill="#8944C2"/>
<path d="M34.11 65.16C27.69 65.16 21.87 63.78 16.65 61.02C11.49 58.2 7.41 54.33 4.41 49.41C1.47 44.43 0 38.82 0 32.58C0 26.34 1.47 20.76 4.41 15.84C7.41 10.86 11.49 6.99 16.65 4.23C21.87 1.41 27.72 0 34.2 0C39.66 0 44.58 0.96 48.96 2.88C53.4 4.8 60.12 11.16 60.12 11.16L50.76 19.8C50.76 19.8 41.22 12.42 34.92 12.42C31.02 12.42 27.54 13.29 24.48 15.03C21.42 16.71 19.02 19.08 17.28 22.14C15.6 25.2 14.76 28.68 14.76 32.58C14.76 36.48 15.6 39.96 17.28 43.02C19.02 46.08 21.42 48.48 24.48 50.22C27.54 51.9 31.02 52.74 34.92 52.74C41.22 52.74 50.76 45.27 50.76 45.27L60.12 53.91C60.12 53.91 53.4 60.36 48.96 62.28C44.52 64.2 39.57 65.16 34.11 65.16Z" fill="#44C2C0"/>
</svg>
